<?xml version="1.0" encoding="UTF-8"?>
<!DOCTYPE svg PUBLIC "-//W3C//DTD SVG 1.1//EN" "http://www.w3.org/Graphics/SVG/1.1/DTD/svg11.dtd">
<svg xmlns="http://www.w3.org/2000/svg" style="background: transparent; background-color: transparent; color-scheme: light;" xmlns:xlink="http://www.w3.org/1999/xlink" version="1.1" width="803px" height="2127px" viewBox="0 0 803 2127"><defs/><g><g data-cell-id="0"><g data-cell-id="1"><g data-cell-id="2"><g><path d="M 304 15 C 304 6.72 348.77 0 404 0 C 430.52 0 455.96 1.58 474.71 4.39 C 493.46 7.21 504 11.02 504 15 L 504 85 C 504 93.28 459.23 100 404 100 C 348.77 100 304 93.28 304 85 Z" fill="#e8f5e9" stroke="#4caf50" stroke-width="1.5" stroke-miterlimit="10" pointer-events="all" style="fill: rgb(232, 245, 233); stroke: rgb(76, 175, 80);"/><path d="M 504 15 C 504 23.28 459.23 30 404 30 C 348.77 30 304 23.28 304 15" fill="none" stroke="#4caf50" stroke-width="1.5" stroke-miterlimit="10" pointer-events="all" style="stroke: rgb(76, 175, 80);"/></g><g><g fill="#212121" font-family="Arial, Helvetica, sans-serif" text-anchor="middle" data-blockTextHeight="39.599999999999994" font-size="11px" style="fill: rgb(33, 33, 33);"><g transform="translate(404,42.7) scale(1)"><text y="11" data-line-font-size="11" x="0"><tspan>获取 CodeCrafters 私有提交</tspan></text><text y="24.2" data-line-font-size="11" x="0"><tspan>工程师从零实现 Git、Redis、SQLite 等软件</tspan></text><text y="37.4" data-line-font-size="11" x="0"><tspan>代码库质量反映不同真实开发水平</tspan></text></g></g></g></g><g data-cell-id="3"><g><rect x="304" y="224" width="200" height="100" rx="20" ry="20" fill="#e3f2fd" stroke="#2196f3" stroke-width="1.5" pointer-events="all" style="fill: rgb(227, 242, 253); stroke: rgb(33, 150, 243);"/></g><g><g fill="#212121" font-family="Arial, Helvetica, sans-serif" text-anchor="middle" data-blockTextHeight="39.599999999999994" font-size="11px" style="fill: rgb(33, 33, 33);"><g transform="translate(404,254.2) scale(1)"><text y="11" data-line-font-size="11" x="0"><tspan>选择小型真实代码库与功能</tspan></text><text y="24.2" data-line-font-size="11" x="0"><tspan>代码规模少于 10,000 行</tspan></text><text y="37.4" data-line-font-size="11" x="0"><tspan>私有来源未进入公开训练语料</tspan></text></g></g></g></g><g data-cell-id="4"><g><path d="M 304 448 L 504 448 L 504 533 Q 454 506 404 533 Q 354 560 304 533 L 304 463 Z" fill="#ffffff" stroke="#9e9e9e" stroke-width="1.5" stroke-miterlimit="10" pointer-events="all" style="fill: rgb(255, 255, 255); stroke: rgb(158, 158, 158);"/></g><g><g fill="#212121" font-family="Arial, Helvetica, sans-serif" text-anchor="middle" data-blockTextHeight="39.599999999999994" font-size="11px" style="fill: rgb(33, 33, 33);"><g transform="translate(404,463.2) scale(1)"><text y="11" data-line-font-size="11" x="0"><tspan>编写详细功能指令</tspan></text><text y="24.2" data-line-font-size="11" x="0"><tspan>把实现要求拆成多个较小阶段</tspan></text><text y="37.4" data-line-font-size="11" x="0"><tspan>说明官方测试的运行方式</tspan></text></g></g></g></g><g data-cell-id="5"><g><rect x="304" y="672" width="200" height="100" rx="20" ry="20" fill="#e3f2fd" stroke="#2196f3" stroke-width="1.5" pointer-events="all" style="fill: rgb(227, 242, 253); stroke: rgb(33, 150, 243);"/></g><g><g fill="#212121" font-family="Arial, Helvetica, sans-serif" text-anchor="middle" data-blockTextHeight="39.599999999999994" font-size="11px" style="fill: rgb(33, 33, 33);"><g transform="translate(404,702.2) scale(1)"><text y="11" data-line-font-size="11" x="0"><tspan>编译为 Harbor 格式任务</tspan></text><text y="24.2" data-line-font-size="11" x="0"><tspan>初始仓库 • instruction.md • 环境</tspan></text><text y="37.4" data-line-font-size="11" x="0"><tspan>测试 • task.toml • 可选参考解</tspan></text></g></g></g></g><g data-cell-id="6"><g><rect x="0" y="904" width="200" height="100" rx="20" ry="20" fill="#e3f2fd" stroke="#2196f3" stroke-width="1.5" pointer-events="all" style="fill: rgb(227, 242, 253); stroke: rgb(33, 150, 243);"/></g><g><g fill="#212121" font-family="Arial, Helvetica, sans-serif" text-anchor="middle" data-blockTextHeight="39.599999999999994" font-size="11px" style="fill: rgb(33, 33, 33);"><g transform="translate(100,934.2) scale(1)"><text y="11" data-line-font-size="11" x="0"><tspan>接入 CodeCrafters 官方测试器</tspan></text><text y="24.2" data-line-font-size="11" x="0"><tspan>由员工手工编写</tspan></text><text y="37.4" data-line-font-size="11" x="0"><tspan>经数十万用户四年以上反复检验</tspan></text></g></g></g></g><g data-cell-id="7"><g><rect x="600" y="904" width="200" height="100" rx="20" ry="20" fill="#e3f2fd" stroke="#2196f3" stroke-width="1.5" pointer-events="all" style="fill: rgb(227, 242, 253); stroke: rgb(33, 150, 243);"/></g><g><g fill="#212121" font-family="Arial, Helvetica, sans-serif" text-anchor="middle" data-blockTextHeight="39.599999999999994" font-size="11px" style="fill: rgb(33, 33, 33);"><g transform="translate(700,934.2) scale(1)"><text y="11" data-line-font-size="11" x="0"><tspan>加入参考解</tspan></text><text y="24.2" data-line-font-size="11" x="0"><tspan>运行 Harbor Oracle Agent</tspan></text><text y="37.4" data-line-font-size="11" x="0"><tspan>验证每个封装任务确实可解</tspan></text></g></g></g></g><g data-cell-id="8"><g><path d="M 304 1143 C 304 1134.72 348.77 1128 404 1128 C 430.52 1128 455.96 1129.58 474.71 1132.39 C 493.46 1135.21 504 1139.02 504 1143 L 504 1213 C 504 1221.28 459.23 1228 404 1228 C 348.77 1228 304 1221.28 304 1213 Z" fill="#e8f5e9" stroke="#4caf50" stroke-width="1.5" stroke-miterlimit="10" pointer-events="all" style="fill: rgb(232, 245, 233); stroke: rgb(76, 175, 80);"/><path d="M 504 1143 C 504 1151.28 459.23 1158 404 1158 C 348.77 1158 304 1151.28 304 1143" fill="none" stroke="#4caf50" stroke-width="1.5" stroke-miterlimit="10" pointer-events="all" style="stroke: rgb(76, 175, 80);"/></g><g><g fill="#212121" font-family="Arial, Helvetica, sans-serif" text-anchor="middle" data-blockTextHeight="39.599999999999994" font-size="11px" style="fill: rgb(33, 33, 33);"><g transform="translate(404,1170.7) scale(1)"><text y="11" data-line-font-size="11" x="0"><tspan>发布 187 个 CCBench 任务</tspan></text><text y="24.2" data-line-font-size="11" x="0"><tspan>公开 Harbor 任务包与评测日志</tspan></text><text y="37.4" data-line-font-size="11" x="0"><tspan>小型私有来源仓库上的真实功能开发</tspan></text></g></g></g></g><g data-cell-id="9"><g><rect x="304" y="1352" width="200" height="100" rx="20" ry="20" fill="#e3f2fd" stroke="#2196f3" stroke-width="1.5" pointer-events="all" style="fill: rgb(227, 242, 253); stroke: rgb(33, 150, 243);"/></g><g><g fill="#212121" font-family="Arial, Helvetica, sans-serif" text-anchor="middle" data-blockTextHeight="39.599999999999994" font-size="11px" style="fill: rgb(33, 33, 33);"><g transform="translate(404,1382.2) scale(1)"><text y="11" data-line-font-size="11" x="0"><tspan>通过 Harbor CLI 运行任意编程 Agent</tspan></text><text y="24.2" data-line-font-size="11" x="0"><tspan>提供仓库、分阶段功能说明与测试信息</tspan></text><text y="37.4" data-line-font-size="11" x="0"><tspan>使用基准规定的时间预算</tspan></text></g></g></g></g><g data-cell-id="10"><g><rect x="304" y="1576" width="200" height="100" rx="20" ry="20" fill="#e3f2fd" stroke="#2196f3" stroke-width="1.5" pointer-events="all" style="fill: rgb(227, 242, 253); stroke: rgb(33, 150, 243);"/></g><g><g fill="#212121" font-family="Arial, Helvetica, sans-serif" text-anchor="middle" data-blockTextHeight="39.599999999999994" font-size="11px" style="fill: rgb(33, 33, 33);"><g transform="translate(404,1606.2) scale(1)"><text y="11" data-line-font-size="11" x="0"><tspan>Agent 检查并修改代码库</tspan></text><text y="24.2" data-line-font-size="11" x="0"><tspan>实现要求的功能</tspan></text><text y="37.4" data-line-font-size="11" x="0"><tspan>返回候选解决方案</tspan></text></g></g></g></g><g data-cell-id="11"><g><rect x="304" y="1800" width="200" height="100" rx="20" ry="20" fill="#e3f2fd" stroke="#2196f3" stroke-width="1.5" pointer-events="all" style="fill: rgb(227, 242, 253); stroke: rgb(33, 150, 243);"/></g><g><g fill="#212121" font-family="Arial, Helvetica, sans-serif" text-anchor="middle" data-blockTextHeight="39.599999999999994" font-size="11px" style="fill: rgb(33, 33, 33);"><g transform="translate(404,1830.2) scale(1)"><text y="11" data-line-font-size="11" x="0"><tspan>执行官方测试器</tspan></text><text y="24.2" data-line-font-size="11" x="0"><tspan>在任务环境中评测候选方案</tspan></text><text y="37.4" data-line-font-size="11" x="0"><tspan>写入 Harbor 验证奖励 1 或 0</tspan></text></g></g></g></g><g data-cell-id="12"><g><rect x="304" y="2024" width="200" height="100" rx="50" ry="50" fill="#eceff1" stroke="#607d8b" stroke-width="1.5" pointer-events="all" style="fill: rgb(236, 239, 241); stroke: rgb(96, 125, 139);"/></g><g><g fill="#212121" font-family="Arial, Helvetica, sans-serif" text-anchor="middle" data-blockTextHeight="39.599999999999994" font-size="11px" style="fill: rgb(33, 33, 33);"><g transform="translate(404,2054.2) scale(1)"><text y="11" data-line-font-size="11" x="0"><tspan>报告二元任务成功与成功率</tspan></text><text y="24.2" data-line-font-size="11" x="0"><tspan>汇总整体及各挑战组结果</tspan></text><text y="37.4" data-line-font-size="11" x="0"><tspan>发布日志供错误检查</tspan></text></g></g></g></g><g data-cell-id="13"><g><path d="M 354 100 L 354 214.82" fill="none" stroke="#424242" stroke-width="1.5" stroke-miterlimit="10" pointer-events="stroke" style="stroke: rgb(66, 66, 66);"/><path d="M 354 222.32 L 350.25 214.82 L 357.75 214.82 Z" fill="#424242" stroke="#424242" stroke-width="1.5" stroke-miterlimit="10" pointer-events="all" style="fill: rgb(66, 66, 66); stroke: rgb(66, 66, 66);"/></g></g><g data-cell-id="14"><g><path d="M 354 324 L 354 438.82" fill="none" stroke="#424242" stroke-width="1.5" stroke-miterlimit="10" pointer-events="stroke" style="stroke: rgb(66, 66, 66);"/><path d="M 354 446.32 L 350.25 438.82 L 357.75 438.82 Z" fill="#424242" stroke="#424242" stroke-width="1.5" stroke-miterlimit="10" pointer-events="all" style="fill: rgb(66, 66, 66); stroke: rgb(66, 66, 66);"/></g></g><g data-cell-id="15"><g><path d="M 354 548 L 354 662.82" fill="none" stroke="#424242" stroke-width="1.5" stroke-miterlimit="10" pointer-events="stroke" style="stroke: rgb(66, 66, 66);"/><path d="M 354 670.32 L 350.25 662.82 L 357.75 662.82 Z" fill="#424242" stroke="#424242" stroke-width="1.5" stroke-miterlimit="10" pointer-events="all" style="fill: rgb(66, 66, 66); stroke: rgb(66, 66, 66);"/></g></g><g data-cell-id="16"><g><path d="M 304 697 L 252 697 L 252 929 L 209.18 929" fill="none" stroke="#424242" stroke-width="1.5" stroke-miterlimit="10" pointer-events="stroke" style="stroke: rgb(66, 66, 66);"/><path d="M 201.68 929 L 209.18 925.25 L 209.18 932.75 Z" fill="#424242" stroke="#424242" stroke-width="1.5" stroke-miterlimit="10" pointer-events="all" style="fill: rgb(66, 66, 66); stroke: rgb(66, 66, 66);"/></g></g><g data-cell-id="17"><g><path d="M 504 697 L 552 697 L 552 929 L 590.82 929" fill="none" stroke="#424242" stroke-width="1.5" stroke-miterlimit="10" pointer-events="stroke" style="stroke: rgb(66, 66, 66);"/><path d="M 598.32 929 L 590.82 932.75 L 590.82 925.25 Z" fill="#424242" stroke="#424242" stroke-width="1.5" stroke-miterlimit="10" pointer-events="all" style="fill: rgb(66, 66, 66); stroke: rgb(66, 66, 66);"/></g></g><g data-cell-id="18"><g><path d="M 200 929 L 252 929 L 252 1153 L 294.82 1153" fill="none" stroke="#424242" stroke-width="1.5" stroke-miterlimit="10" pointer-events="stroke" style="stroke: rgb(66, 66, 66);"/><path d="M 302.32 1153 L 294.82 1156.75 L 294.82 1149.25 Z" fill="#424242" stroke="#424242" stroke-width="1.5" stroke-miterlimit="10" pointer-events="all" style="fill: rgb(66, 66, 66); stroke: rgb(66, 66, 66);"/></g></g><g data-cell-id="19"><g><path d="M 600 929 L 552 929 L 552 1153 L 513.18 1153" fill="none" stroke="#424242" stroke-width="1.5" stroke-miterlimit="10" stroke-dasharray="9 6" pointer-events="stroke" style="stroke: rgb(66, 66, 66);"/><path d="M 505.68 1153 L 513.18 1149.25 L 513.18 1156.75 Z" fill="#424242" stroke="#424242" stroke-width="1.5" stroke-miterlimit="10" pointer-events="all" style="fill: rgb(66, 66, 66); stroke: rgb(66, 66, 66);"/></g></g><g data-cell-id="20"><g><path d="M 354 1228 L 354 1342.82" fill="none" stroke="#424242" stroke-width="1.5" stroke-miterlimit="10" pointer-events="stroke" style="stroke: rgb(66, 66, 66);"/><path d="M 354 1350.32 L 350.25 1342.82 L 357.75 1342.82 Z" fill="#424242" stroke="#424242" stroke-width="1.5" stroke-miterlimit="10" pointer-events="all" style="fill: rgb(66, 66, 66); stroke: rgb(66, 66, 66);"/></g></g><g data-cell-id="21"><g><path d="M 354 1452 L 354 1566.82" fill="none" stroke="#424242" stroke-width="1.5" stroke-miterlimit="10" pointer-events="stroke" style="stroke: rgb(66, 66, 66);"/><path d="M 354 1574.32 L 350.25 1566.82 L 357.75 1566.82 Z" fill="#424242" stroke="#424242" stroke-width="1.5" stroke-miterlimit="10" pointer-events="all" style="fill: rgb(66, 66, 66); stroke: rgb(66, 66, 66);"/></g></g><g data-cell-id="22"><g><path d="M 354 1676 L 354 1790.82" fill="none" stroke="#424242" stroke-width="1.5" stroke-miterlimit="10" pointer-events="stroke" style="stroke: rgb(66, 66, 66);"/><path d="M 354 1798.32 L 350.25 1790.82 L 357.75 1790.82 Z" fill="#424242" stroke="#424242" stroke-width="1.5" stroke-miterlimit="10" pointer-events="all" style="fill: rgb(66, 66, 66); stroke: rgb(66, 66, 66);"/></g></g><g data-cell-id="23"><g><path d="M 354 1900 L 354 2014.82" fill="none" stroke="#424242" stroke-width="1.5" stroke-miterlimit="10" pointer-events="stroke" style="stroke: rgb(66, 66, 66);"/><path d="M 354 2022.32 L 350.25 2014.82 L 357.75 2014.82 Z" fill="#424242" stroke="#424242" stroke-width="1.5" stroke-miterlimit="10" pointer-events="all" style="fill: rgb(66, 66, 66); stroke: rgb(66, 66, 66);"/></g></g></g></g></g></svg>