<?xml version="1.0" encoding="UTF-8"?>
<!DOCTYPE svg PUBLIC "-//W3C//DTD SVG 1.1//EN" "http://www.w3.org/Graphics/SVG/1.1/DTD/svg11.dtd">
<svg xmlns="http://www.w3.org/2000/svg" style="background: transparent; background-color: transparent; color-scheme: light;" xmlns:xlink="http://www.w3.org/1999/xlink" version="1.1" width="1603px" height="823px" viewBox="0 0 1603 823"><defs/><g><g data-cell-id="0"><g data-cell-id="1"><g data-cell-id="2"><g><path d="M 0 15 C 0 6.72 44.77 0 100 0 C 126.52 0 151.96 1.58 170.71 4.39 C 189.46 7.21 200 11.02 200 15 L 200 85 C 200 93.28 155.23 100 100 100 C 44.77 100 0 93.28 0 85 Z" fill="#e8f5e9" stroke="#4caf50" stroke-width="1.5" stroke-miterlimit="10" pointer-events="all" style="fill: rgb(232, 245, 233); stroke: rgb(76, 175, 80);"/><path d="M 200 15 C 200 23.28 155.23 30 100 30 C 44.77 30 0 23.28 0 15" fill="none" stroke="#4caf50" stroke-width="1.5" stroke-miterlimit="10" pointer-events="all" style="stroke: rgb(76, 175, 80);"/></g><g><g fill="#212121" font-family="Arial, Helvetica, sans-serif" text-anchor="middle" data-blockTextHeight="39.599999999999994" font-size="11px" style="fill: rgb(33, 33, 33);"><g transform="translate(100,42.7) scale(1)"><text y="11" data-line-font-size="11" x="0"><tspan>B1 · 范围与任务</tspan></text><text y="24.2" data-line-font-size="11" x="0"><tspan>论文注册表 13 项任务</tspan></text><text y="37.4" data-line-font-size="11" x="0"><tspan>未报告选择方法</tspan></text></g></g></g></g><g data-cell-id="3"><g><path d="M 280 15 C 280 6.72 324.77 0 380 0 C 406.52 0 431.96 1.58 450.71 4.39 C 469.46 7.21 480 11.02 480 15 L 480 85 C 480 93.28 435.23 100 380 100 C 324.77 100 280 93.28 280 85 Z" fill="#e8f5e9" stroke="#4caf50" stroke-width="1.5" stroke-miterlimit="10" pointer-events="all" style="fill: rgb(232, 245, 233); stroke: rgb(76, 175, 80);"/><path d="M 480 15 C 480 23.28 435.23 30 380 30 C 324.77 30 280 23.28 280 15" fill="none" stroke="#4caf50" stroke-width="1.5" stroke-miterlimit="10" pointer-events="all" style="stroke: rgb(76, 175, 80);"/></g><g><g fill="#212121" font-family="Arial, Helvetica, sans-serif" text-anchor="middle" data-blockTextHeight="39.599999999999994" font-size="11px" style="fill: rgb(33, 33, 33);"><g transform="translate(380,42.7) scale(1)"><text y="11" data-line-font-size="11" x="0"><tspan>B2 · 数据与划分</tspan></text><text y="24.2" data-line-font-size="11" x="0"><tspan>HF 加 Drive/本地</tspan></text><text y="37.4" data-line-font-size="11" x="0"><tspan>无哈希和全局 QC</tspan></text></g></g></g></g><g data-cell-id="4"><g><path d="M 560 0 L 760 0 L 760 85 Q 710 58 660 85 Q 610 112 560 85 L 560 15 Z" fill="#ffffff" stroke="#9e9e9e" stroke-width="1.5" stroke-miterlimit="10" pointer-events="all" style="fill: rgb(255, 255, 255); stroke: rgb(158, 158, 158);"/></g><g><g fill="#212121" font-family="Arial, Helvetica, sans-serif" text-anchor="middle" data-blockTextHeight="39.599999999999994" font-size="11px" style="fill: rgb(33, 33, 33);"><g transform="translate(660,15.2) scale(1)"><text y="11" data-line-font-size="11" x="0"><tspan>B3 · 任务契约</tspan></text><text y="24.2" data-line-font-size="11" x="0"><tspan>YAML、评估器、超时</tspan></text><text y="37.4" data-line-font-size="11" x="0"><tspan>工件类型与指标方向</tspan></text></g></g></g></g><g data-cell-id="5"><g><path d="M 840 0 L 1040 0 L 1040 85 Q 990 58 940 85 Q 890 112 840 85 L 840 15 Z" fill="#ffffff" stroke="#9e9e9e" stroke-width="1.5" stroke-miterlimit="10" pointer-events="all" style="fill: rgb(255, 255, 255); stroke: rgb(158, 158, 158);"/></g><g><g fill="#212121" font-family="Arial, Helvetica, sans-serif" text-anchor="middle" data-blockTextHeight="39.599999999999994" font-size="11px" style="fill: rgb(33, 33, 33);"><g transform="translate(940,15.2) scale(1)"><text y="11" data-line-font-size="11" x="0"><tspan>R1 · 固定论文快照</tspan></text><text y="24.2" data-line-font-size="11" x="0"><tspan>arXiv v1 · 0756348</tspan></text><text y="37.4" data-line-font-size="11" x="0"><tspan>18 任务 / 7 数据 YAML</tspan></text></g></g></g></g><g data-cell-id="6"><g><path d="M 1120 0 L 1320 0 L 1320 85 Q 1270 58 1220 85 Q 1170 112 1120 85 L 1120 15 Z" fill="#ffffff" stroke="#9e9e9e" stroke-width="1.5" stroke-miterlimit="10" pointer-events="all" style="fill: rgb(255, 255, 255); stroke: rgb(158, 158, 158);"/></g><g><g fill="#212121" font-family="Arial, Helvetica, sans-serif" text-anchor="middle" data-blockTextHeight="39.599999999999994" font-size="11px" style="fill: rgb(33, 33, 33);"><g transform="translate(1220,15.2) scale(1)"><text y="11" data-line-font-size="11" x="0"><tspan>R2 · 公开边界</tspan></text><text y="24.2" data-line-font-size="11" x="0"><tspan>代码、配置、261 组运行</tspan></text><text y="37.4" data-line-font-size="11" x="0"><tspan>可变数据与 latest 镜像</tspan></text></g></g></g></g><g data-cell-id="7"><g><path d="M 1120 240 L 1320 240 L 1320 325 Q 1270 298 1220 325 Q 1170 352 1120 325 L 1120 255 Z" fill="#ffffff" stroke="#9e9e9e" stroke-width="1.5" stroke-miterlimit="10" pointer-events="all" style="fill: rgb(255, 255, 255); stroke: rgb(158, 158, 158);"/></g><g><g fill="#212121" font-family="Arial, Helvetica, sans-serif" text-anchor="middle" data-blockTextHeight="39.599999999999994" font-size="11px" style="fill: rgb(33, 33, 33);"><g transform="translate(1220,255.2) scale(1)"><text y="11" data-line-font-size="11" x="0"><tspan>R3 · 启动入口失配</tspan></text><text y="24.2" data-line-font-size="11" x="0"><tspan>Agent YAML、别名、3SAT 路径</tspan></text><text y="37.4" data-line-font-size="11" x="0"><tspan>过期 --config_file</tspan></text></g></g></g></g><g data-cell-id="8"><g><path d="M 1400 0 L 1600 0 L 1600 85 Q 1550 58 1500 85 Q 1450 112 1400 85 L 1400 15 Z" fill="#ffffff" stroke="#9e9e9e" stroke-width="1.5" stroke-miterlimit="10" pointer-events="all" style="fill: rgb(255, 255, 255); stroke: rgb(158, 158, 158);"/></g><g><g fill="#212121" font-family="Arial, Helvetica, sans-serif" text-anchor="middle" data-blockTextHeight="39.599999999999994" font-size="11px" style="fill: rgb(33, 33, 33);"><g transform="translate(1500,15.2) scale(1)"><text y="11" data-line-font-size="11" x="0"><tspan>D1 · 后续 HEAD</tspan></text><text y="24.2" data-line-font-size="11" x="0"><tspan>9d40c1b · 19/8 YAML</tspan></text><text y="37.4" data-line-font-size="11" x="0"><tspan>1,506 个文件不同</tspan></text></g></g></g></g><g data-cell-id="9"><g><rect x="840" y="240" width="200" height="100" rx="20" ry="20" fill="#e3f2fd" stroke="#2196f3" stroke-width="1.5" pointer-events="all" style="fill: rgb(227, 242, 253); stroke: rgb(33, 150, 243);"/></g><g><g fill="#212121" font-family="Arial, Helvetica, sans-serif" text-anchor="middle" data-blockTextHeight="39.599999999999994" font-size="11px" style="fill: rgb(33, 33, 33);"><g transform="translate(940,270.2) scale(1)"><text y="11" data-line-font-size="11" x="0"><tspan>E1 · 构建工作区</tspan></text><text y="24.2" data-line-font-size="11" x="0"><tspan>非 root Docker/Podman</tspan></text><text y="37.4" data-line-font-size="11" x="0"><tspan>数据与评估器只读</tspan></text></g></g></g></g><g data-cell-id="10"><g><ellipse cx="660" cy="290" rx="100" ry="50" fill="#e3f2fd" stroke="#1976d2" stroke-width="1.5" pointer-events="all" style="fill: rgb(227, 242, 253); stroke: rgb(25, 118, 210);"/></g><g><g fill="#212121" font-family="Arial, Helvetica, sans-serif" text-anchor="middle" data-blockTextHeight="39.599999999999994" font-size="11px" style="fill: rgb(33, 33, 33);"><g transform="translate(660,270.2) scale(1)"><text y="11" data-line-font-size="11" x="0"><tspan>E2 · 启动框架</tspan></text><text y="24.2" data-line-font-size="11" x="0"><tspan>SWE-Agent ReAct</tspan></text><text y="37.4" data-line-font-size="11" x="0"><tspan>每步一命令；验证/提交</tspan></text></g></g></g></g><g data-cell-id="11"><g><ellipse cx="380" cy="290" rx="100" ry="50" fill="#e3f2fd" stroke="#1976d2" stroke-width="1.5" pointer-events="all" style="fill: rgb(227, 242, 253); stroke: rgb(25, 118, 210);"/></g><g><g fill="#212121" font-family="Arial, Helvetica, sans-serif" text-anchor="middle" data-blockTextHeight="39.599999999999994" font-size="11px" style="fill: rgb(33, 33, 33);"><g transform="translate(380,270.2) scale(1)"><text y="11" data-line-font-size="11" x="0"><tspan>E3 · 研究循环</tspan></text><text y="24.2" data-line-font-size="11" x="0"><tspan>编辑、训练、分析</tspan></text><text y="37.4" data-line-font-size="11" x="0"><tspan>50 步；任务超时</tspan></text></g></g></g></g><g data-cell-id="12"><g><path d="M 100 240 L 200 290 L 100 340 L 0 290 Z" fill="#fff3e0" stroke="#ff9800" stroke-width="1.5" stroke-miterlimit="10" pointer-events="all" style="fill: rgb(255, 243, 224); stroke: rgb(255, 152, 0);"/></g><g><g fill="#212121" font-family="Arial, Helvetica, sans-serif" text-anchor="middle" data-blockTextHeight="39.599999999999994" font-size="11px" style="fill: rgb(33, 33, 33);"><g transform="translate(100,270.2) scale(1)"><text y="11" data-line-font-size="11" x="0"><tspan>D2 · 验证？</tspan></text><text y="24.2" data-line-font-size="11" x="0"><tspan>运行评估器后继续</tspan></text><text y="37.4" data-line-font-size="11" x="0"><tspan>可跳过或重复</tspan></text></g></g></g></g><g data-cell-id="13"><g><rect x="0" y="480" width="200" height="100" rx="20" ry="20" fill="#e3f2fd" stroke="#2196f3" stroke-width="1.5" pointer-events="all" style="fill: rgb(227, 242, 253); stroke: rgb(33, 150, 243);"/></g><g><g fill="#212121" font-family="Arial, Helvetica, sans-serif" text-anchor="middle" data-blockTextHeight="39.599999999999994" font-size="11px" style="fill: rgb(33, 33, 33);"><g transform="translate(100,510.2) scale(1)"><text y="11" data-line-font-size="11" x="0"><tspan>E4 · 记录尝试</tspan></text><text y="24.2" data-line-font-size="11" x="0"><tspan>追加有效指标</tspan></text><text y="37.4" data-line-font-size="11" x="0"><tspan>显示基线与当前值</tspan></text></g></g></g></g><g data-cell-id="14"><g><path d="M 380 480 L 480 530 L 380 580 L 280 530 Z" fill="#fff3e0" stroke="#ff9800" stroke-width="1.5" stroke-miterlimit="10" pointer-events="all" style="fill: rgb(255, 243, 224); stroke: rgb(255, 152, 0);"/></g><g><g fill="#212121" font-family="Arial, Helvetica, sans-serif" text-anchor="middle" data-blockTextHeight="39.599999999999994" font-size="11px" style="fill: rgb(33, 33, 33);"><g transform="translate(380,510.2) scale(1)"><text y="11" data-line-font-size="11" x="0"><tspan>D3 · 终止？</tspan></text><text y="24.2" data-line-font-size="11" x="0"><tspan>提交、限额或错误</tspan></text><text y="37.4" data-line-font-size="11" x="0"><tspan>否则继续</tspan></text></g></g></g></g><g data-cell-id="15"><g><rect x="560" y="480" width="200" height="100" rx="20" ry="20" fill="#e3f2fd" stroke="#2196f3" stroke-width="1.5" pointer-events="all" style="fill: rgb(227, 242, 253); stroke: rgb(33, 150, 243);"/></g><g><g fill="#212121" font-family="Arial, Helvetica, sans-serif" text-anchor="middle" data-blockTextHeight="39.599999999999994" font-size="11px" style="fill: rgb(33, 33, 33);"><g transform="translate(660,510.2) scale(1)"><text y="11" data-line-font-size="11" x="0"><tspan>E5 · 终止评估</tspan></text><text y="24.2" data-line-font-size="11" x="0"><tspan>提交或自动提交</tspan></text><text y="37.4" data-line-font-size="11" x="0"><tspan>仅追加有效指标</tspan></text></g></g></g></g><g data-cell-id="16"><g><path d="M 840 480 L 1040 480 L 1040 565 Q 990 538 940 565 Q 890 592 840 565 L 840 495 Z" fill="#ffffff" stroke="#9e9e9e" stroke-width="1.5" stroke-miterlimit="10" pointer-events="all" style="fill: rgb(255, 255, 255); stroke: rgb(158, 158, 158);"/></g><g><g fill="#212121" font-family="Arial, Helvetica, sans-serif" text-anchor="middle" data-blockTextHeight="39.599999999999994" font-size="11px" style="fill: rgb(33, 33, 33);"><g transform="translate(940,495.2) scale(1)"><text y="11" data-line-font-size="11" x="0"><tspan>E6 · 运行分类</tspan></text><text y="24.2" data-line-font-size="11" x="0"><tspan>无有效分数：失败</tspan></text><text y="37.4" data-line-font-size="11" x="0"><tspan>已有分数 + 错误：未完成</tspan></text></g></g></g></g><g data-cell-id="17"><g><path d="M 1120 480 L 1320 480 L 1320 565 Q 1270 538 1220 565 Q 1170 592 1120 565 L 1120 495 Z" fill="#ffffff" stroke="#9e9e9e" stroke-width="1.5" stroke-miterlimit="10" pointer-events="all" style="fill: rgb(255, 255, 255); stroke: rgb(158, 158, 158);"/></g><g><g fill="#212121" font-family="Arial, Helvetica, sans-serif" text-anchor="middle" data-blockTextHeight="39.599999999999994" font-size="11px" style="fill: rgb(33, 33, 33);"><g transform="translate(1220,495.2) scale(1)"><text y="11" data-line-font-size="11" x="0"><tspan>E7 · 保存证据</tspan></text><text y="24.2" data-line-font-size="11" x="0"><tspan>.traj 与 results.json</tspan></text><text y="37.4" data-line-font-size="11" x="0"><tspan>工作区导出仍为 TODO</tspan></text></g></g></g></g><g data-cell-id="18"><g><rect x="1120" y="720" width="200" height="100" rx="20" ry="20" fill="#e3f2fd" stroke="#2196f3" stroke-width="1.5" pointer-events="all" style="fill: rgb(227, 242, 253); stroke: rgb(33, 150, 243);"/></g><g><g fill="#212121" font-family="Arial, Helvetica, sans-serif" text-anchor="middle" data-blockTextHeight="39.599999999999994" font-size="11px" style="fill: rgb(33, 33, 33);"><g transform="translate(1220,750.2) scale(1)"><text y="11" data-line-font-size="11" x="0"><tspan>S1 · 解析指标</tspan></text><text y="24.2" data-line-font-size="11" x="0"><tspan>按任务解析 stdout JSON</tspan></text><text y="37.4" data-line-font-size="11" x="0"><tspan>注册表指定方向</tspan></text></g></g></g></g><g data-cell-id="19"><g><path d="M 840 720 L 1040 720 L 1040 805 Q 990 778 940 805 Q 890 832 840 805 L 840 735 Z" fill="#ffffff" stroke="#9e9e9e" stroke-width="1.5" stroke-miterlimit="10" pointer-events="all" style="fill: rgb(255, 255, 255); stroke: rgb(158, 158, 158);"/></g><g><g fill="#212121" font-family="Arial, Helvetica, sans-serif" text-anchor="middle" data-blockTextHeight="39.599999999999994" font-size="11px" style="fill: rgb(33, 33, 33);"><g transform="translate(940,735.2) scale(1)"><text y="11" data-line-font-size="11" x="0"><tspan>S2 · 汇集四次运行</tspan></text><text y="24.2" data-line-font-size="11" x="0"><tspan>论文：独立种子</tspan></text><text y="37.4" data-line-font-size="11" x="0"><tspan>发布代码仍用种子 42</tspan></text></g></g></g></g><g data-cell-id="20"><g><rect x="560" y="720" width="200" height="100" rx="20" ry="20" fill="#e3f2fd" stroke="#2196f3" stroke-width="1.5" pointer-events="all" style="fill: rgb(227, 242, 253); stroke: rgb(33, 150, 243);"/></g><g><g fill="#212121" font-family="Arial, Helvetica, sans-serif" text-anchor="middle" data-blockTextHeight="39.599999999999994" font-size="11px" style="fill: rgb(33, 33, 33);"><g transform="translate(660,750.2) scale(1)"><text y="11" data-line-font-size="11" x="0"><tspan>S3 · 两种 @4 视图</tspan></text><text y="24.2" data-line-font-size="11" x="0"><tspan>最佳尝试：任一有效值</tspan></text><text y="37.4" data-line-font-size="11" x="0"><tspan>论文最终；代码 agent[-1]</tspan></text></g></g></g></g><g data-cell-id="21"><g><rect x="280" y="720" width="200" height="100" rx="50" ry="50" fill="#eceff1" stroke="#607d8b" stroke-width="1.5" pointer-events="all" style="fill: rgb(236, 239, 241); stroke: rgb(96, 125, 139);"/></g><g><g fill="#212121" font-family="Arial, Helvetica, sans-serif" text-anchor="middle" data-blockTextHeight="39.599999999999994" font-size="11px" style="fill: rgb(33, 33, 33);"><g transform="translate(380,750.2) scale(1)"><text y="11" data-line-font-size="11" x="0"><tspan>S4 · 性能剖面与报告</tspan></text><text y="24.2" data-line-font-size="11" x="0"><tspan>基线可行性 + ε = 0.05</tspan></text><text y="37.4" data-line-font-size="11" x="0"><tspan>阶梯 AUP 与原始指标</tspan></text></g></g></g></g><g data-cell-id="22"><g><path d="M 200 15 L 270.82 15" fill="none" stroke="#424242" stroke-width="1.5" stroke-miterlimit="10" pointer-events="stroke" style="stroke: rgb(66, 66, 66);"/><path d="M 278.32 15 L 270.82 18.75 L 270.82 11.25 Z" fill="#424242" stroke="#424242" stroke-width="1.5" stroke-miterlimit="10" pointer-events="all" style="fill: rgb(66, 66, 66); stroke: rgb(66, 66, 66);"/></g></g><g data-cell-id="23"><g><path d="M 480 15 L 550.82 15" fill="none" stroke="#424242" stroke-width="1.5" stroke-miterlimit="10" pointer-events="stroke" style="stroke: rgb(66, 66, 66);"/><path d="M 558.32 15 L 550.82 18.75 L 550.82 11.25 Z" fill="#424242" stroke="#424242" stroke-width="1.5" stroke-miterlimit="10" pointer-events="all" style="fill: rgb(66, 66, 66); stroke: rgb(66, 66, 66);"/></g></g><g data-cell-id="24"><g><path d="M 760 15 L 830.82 15" fill="none" stroke="#424242" stroke-width="1.5" stroke-miterlimit="10" pointer-events="stroke" style="stroke: rgb(66, 66, 66);"/><path d="M 838.32 15 L 830.82 18.75 L 830.82 11.25 Z" fill="#424242" stroke="#424242" stroke-width="1.5" stroke-miterlimit="10" pointer-events="all" style="fill: rgb(66, 66, 66); stroke: rgb(66, 66, 66);"/></g></g><g data-cell-id="25"><g><path d="M 1040 15 L 1110.82 15" fill="none" stroke="#424242" stroke-width="1.5" stroke-miterlimit="10" pointer-events="stroke" style="stroke: rgb(66, 66, 66);"/><path d="M 1118.32 15 L 1110.82 18.75 L 1110.82 11.25 Z" fill="#424242" stroke="#424242" stroke-width="1.5" stroke-miterlimit="10" pointer-events="all" style="fill: rgb(66, 66, 66); stroke: rgb(66, 66, 66);"/></g></g><g data-cell-id="26"><g><path d="M 1150 100 L 1150 230.82" fill="none" stroke="#424242" stroke-width="1.5" stroke-miterlimit="10" pointer-events="stroke" style="stroke: rgb(66, 66, 66);"/><path d="M 1150 238.32 L 1146.25 230.82 L 1153.75 230.82 Z" fill="#424242" stroke="#424242" stroke-width="1.5" stroke-miterlimit="10" pointer-events="all" style="fill: rgb(66, 66, 66); stroke: rgb(66, 66, 66);"/></g></g><g data-cell-id="27"><g transform="translate(0.5,0.5)"><path d="M 1320 15 L 1397.76 15" fill="none" stroke="#9e9e9e" stroke-miterlimit="10" stroke-dasharray="3 3" pointer-events="stroke" style="stroke: rgb(158, 158, 158);"/><path d="M 1391.88 18.5 L 1398.88 15 L 1391.88 11.5" fill="none" stroke="#9e9e9e" stroke-miterlimit="10" pointer-events="all" style="stroke: rgb(158, 158, 158);"/></g></g><g data-cell-id="28"><g><path d="M 1120 255 L 1049.18 255" fill="none" stroke="#424242" stroke-width="1.5" stroke-miterlimit="10" pointer-events="stroke" style="stroke: rgb(66, 66, 66);"/><path d="M 1041.68 255 L 1049.18 251.25 L 1049.18 258.75 Z" fill="#424242" stroke="#424242" stroke-width="1.5" stroke-miterlimit="10" pointer-events="all" style="fill: rgb(66, 66, 66); stroke: rgb(66, 66, 66);"/></g></g><g data-cell-id="29"><g><path d="M 840 255 L 800 255 L 800 261.3 L 751.1 261.32" fill="none" stroke="#424242" stroke-width="1.5" stroke-miterlimit="10" pointer-events="stroke" style="stroke: rgb(66, 66, 66);"/><path d="M 743.6 261.33 L 751.1 257.57 L 751.1 265.07 Z" fill="#424242" stroke="#424242" stroke-width="1.5" stroke-miterlimit="10" pointer-events="all" style="fill: rgb(66, 66, 66); stroke: rgb(66, 66, 66);"/></g></g><g data-cell-id="30"><g><path d="M 578.08 261.33 L 471.1 261.33" fill="none" stroke="#424242" stroke-width="1.5" stroke-miterlimit="10" pointer-events="stroke" style="stroke: rgb(66, 66, 66);"/><path d="M 463.6 261.33 L 471.1 257.58 L 471.1 265.08 Z" fill="#424242" stroke="#424242" stroke-width="1.5" stroke-miterlimit="10" pointer-events="all" style="fill: rgb(66, 66, 66); stroke: rgb(66, 66, 66);"/></g></g><g data-cell-id="31"><g><path d="M 298.08 261.33 L 240 261.3 L 240 269.4 L 168 269.41" fill="none" stroke="#424242" stroke-width="1.5" stroke-miterlimit="10" pointer-events="stroke" style="stroke: rgb(66, 66, 66);"/><path d="M 160.5 269.41 L 168 265.66 L 168 273.16 Z" fill="#424242" stroke="#424242" stroke-width="1.5" stroke-miterlimit="10" pointer-events="all" style="fill: rgb(66, 66, 66); stroke: rgb(66, 66, 66);"/></g></g><g data-cell-id="32"><g><path d="M 58.82 319.41 L 58.8 410 L 30 410 L 30 470.82" fill="none" stroke="#424242" stroke-width="1.5" stroke-miterlimit="10" pointer-events="stroke" style="stroke: rgb(66, 66, 66);"/><path d="M 30 478.32 L 26.25 470.82 L 33.75 470.82 Z" fill="#424242" stroke="#424242" stroke-width="1.5" stroke-miterlimit="10" pointer-events="all" style="fill: rgb(66, 66, 66); stroke: rgb(66, 66, 66);"/></g></g><g data-cell-id="33"><g transform="translate(0.5,0.5)"><path d="M 100 340 L 100 448 L 336 448 L 336 668 L 476 668 L 476 534.24" fill="none" stroke="#9e9e9e" stroke-miterlimit="10" stroke-dasharray="3 3" pointer-events="stroke" style="stroke: rgb(158, 158, 158);"/><path d="M 479.5 540.12 L 476 533.12 L 472.5 540.12" fill="none" stroke="#9e9e9e" stroke-miterlimit="10" pointer-events="all" style="stroke: rgb(158, 158, 158);"/></g></g><g data-cell-id="34"><g><path d="M 200 495 L 240 495 L 240 509.4 L 312 509.41" fill="none" stroke="#424242" stroke-width="1.5" stroke-miterlimit="10" pointer-events="stroke" style="stroke: rgb(66, 66, 66);"/><path d="M 319.5 509.41 L 312 513.16 L 312 505.66 Z" fill="#424242" stroke="#424242" stroke-width="1.5" stroke-miterlimit="10" pointer-events="all" style="fill: rgb(66, 66, 66); stroke: rgb(66, 66, 66);"/></g></g><g data-cell-id="35"><g transform="translate(0.5,0.5)"><path d="M 421.18 500.59 L 421.2 410 L 437.3 410 L 437.34 333.2" fill="none" stroke="#9e9e9e" stroke-miterlimit="10" stroke-dasharray="3 3" pointer-events="stroke" style="stroke: rgb(158, 158, 158);"/><path d="M 440.84 339.08 L 437.35 332.08 L 433.84 339.08" fill="none" stroke="#9e9e9e" stroke-miterlimit="10" pointer-events="all" style="stroke: rgb(158, 158, 158);"/></g></g><g data-cell-id="36"><g><path d="M 438.82 509.41 L 520 509.4 L 520 495 L 550.82 495" fill="none" stroke="#424242" stroke-width="1.5" stroke-miterlimit="10" pointer-events="stroke" style="stroke: rgb(66, 66, 66);"/><path d="M 558.32 495 L 550.82 498.75 L 550.82 491.25 Z" fill="#424242" stroke="#424242" stroke-width="1.5" stroke-miterlimit="10" pointer-events="all" style="fill: rgb(66, 66, 66); stroke: rgb(66, 66, 66);"/></g></g><g data-cell-id="37"><g><path d="M 760 495 L 830.82 495" fill="none" stroke="#424242" stroke-width="1.5" stroke-miterlimit="10" pointer-events="stroke" style="stroke: rgb(66, 66, 66);"/><path d="M 838.32 495 L 830.82 498.75 L 830.82 491.25 Z" fill="#424242" stroke="#424242" stroke-width="1.5" stroke-miterlimit="10" pointer-events="all" style="fill: rgb(66, 66, 66); stroke: rgb(66, 66, 66);"/></g></g><g data-cell-id="38"><g><path d="M 1040 495 L 1110.82 495" fill="none" stroke="#424242" stroke-width="1.5" stroke-miterlimit="10" pointer-events="stroke" style="stroke: rgb(66, 66, 66);"/><path d="M 1118.32 495 L 1110.82 498.75 L 1110.82 491.25 Z" fill="#424242" stroke="#424242" stroke-width="1.5" stroke-miterlimit="10" pointer-events="all" style="fill: rgb(66, 66, 66); stroke: rgb(66, 66, 66);"/></g></g><g data-cell-id="39"><g><path d="M 1150 580 L 1150 710.82" fill="none" stroke="#424242" stroke-width="1.5" stroke-miterlimit="10" pointer-events="stroke" style="stroke: rgb(66, 66, 66);"/><path d="M 1150 718.32 L 1146.25 710.82 L 1153.75 710.82 Z" fill="#424242" stroke="#424242" stroke-width="1.5" stroke-miterlimit="10" pointer-events="all" style="fill: rgb(66, 66, 66); stroke: rgb(66, 66, 66);"/></g></g><g data-cell-id="40"><g><path d="M 1120 735 L 1049.18 735" fill="none" stroke="#424242" stroke-width="1.5" stroke-miterlimit="10" pointer-events="stroke" style="stroke: rgb(66, 66, 66);"/><path d="M 1041.68 735 L 1049.18 731.25 L 1049.18 738.75 Z" fill="#424242" stroke="#424242" stroke-width="1.5" stroke-miterlimit="10" pointer-events="all" style="fill: rgb(66, 66, 66); stroke: rgb(66, 66, 66);"/></g></g><g data-cell-id="41"><g><path d="M 840 735 L 769.18 735" fill="none" stroke="#424242" stroke-width="1.5" stroke-miterlimit="10" pointer-events="stroke" style="stroke: rgb(66, 66, 66);"/><path d="M 761.68 735 L 769.18 731.25 L 769.18 738.75 Z" fill="#424242" stroke="#424242" stroke-width="1.5" stroke-miterlimit="10" pointer-events="all" style="fill: rgb(66, 66, 66); stroke: rgb(66, 66, 66);"/></g></g><g data-cell-id="42"><g><path d="M 560 735 L 489.18 735" fill="none" stroke="#424242" stroke-width="1.5" stroke-miterlimit="10" pointer-events="stroke" style="stroke: rgb(66, 66, 66);"/><path d="M 481.68 735 L 489.18 731.25 L 489.18 738.75 Z" fill="#424242" stroke="#424242" stroke-width="1.5" stroke-miterlimit="10" pointer-events="all" style="fill: rgb(66, 66, 66); stroke: rgb(66, 66, 66);"/></g></g></g></g></g></svg>