<?xml version="1.0" encoding="UTF-8"?>
<!DOCTYPE svg PUBLIC "-//W3C//DTD SVG 1.1//EN" "http://www.w3.org/Graphics/SVG/1.1/DTD/svg11.dtd">
<svg xmlns="http://www.w3.org/2000/svg" style="background: transparent; background-color: transparent; color-scheme: light;" xmlns:xlink="http://www.w3.org/1999/xlink" version="1.1" width="2539px" height="767px" viewBox="0 0 2539 767"><defs/><g><g data-cell-id="0"><g data-cell-id="1"><g data-cell-id="2"><g><path d="M 0 0 L 200 0 L 200 85 Q 150 58 100 85 Q 50 112 0 85 L 0 15 Z" fill="#ffffff" stroke="#9e9e9e" stroke-width="1.5" stroke-miterlimit="10" pointer-events="all" style="fill: rgb(255, 255, 255); stroke: rgb(158, 158, 158);"/></g><g><g fill="#212121" font-family="Arial, Helvetica, sans-serif" text-anchor="middle" data-blockTextHeight="52.8" font-size="11px" style="fill: rgb(33, 33, 33);"><g transform="translate(100,8.6) scale(1)"><text y="11" data-line-font-size="11" x="0"><tspan>Fixed evidence boundary</tspan></text><text y="24.2" data-line-font-size="11" x="0"><tspan>arXiv:2501.03200v1</tspan></text><text y="37.4" data-line-font-size="11" x="0"><tspan>HF dataset @ 11b6961</tspan></text><text y="50.6" data-line-font-size="11" x="0"><tspan>FACTS Grounding 1.0 public artifact</tspan></text></g></g></g></g><g data-cell-id="3"><g><path d="M 0 359 C 0 350.72 44.77 344 100 344 C 126.52 344 151.96 345.58 170.71 348.39 C 189.46 351.21 200 355.02 200 359 L 200 429 C 200 437.28 155.23 444 100 444 C 44.77 444 0 437.28 0 429 Z" fill="#e8f5e9" stroke="#4caf50" stroke-width="1.5" stroke-miterlimit="10" pointer-events="all" style="fill: rgb(232, 245, 233); stroke: rgb(76, 175, 80);"/><path d="M 200 359 C 200 367.28 155.23 374 100 374 C 44.77 374 0 367.28 0 359" fill="none" stroke="#4caf50" stroke-width="1.5" stroke-miterlimit="10" pointer-events="all" style="stroke: rgb(76, 175, 80);"/></g><g><g fill="#212121" font-family="Arial, Helvetica, sans-serif" text-anchor="middle" data-blockTextHeight="52.8" font-size="11px" style="fill: rgb(33, 33, 33);"><g transform="translate(100,380.1) scale(1)"><text y="11" data-line-font-size="11" x="0"><tspan>Collect web documents or review sets</tspan></text><text y="24.2" data-line-font-size="11" x="0"><tspan>medical · legal · internet/technology</tspan></text><text y="37.4" data-line-font-size="11" x="0"><tspan>financial · retail/product</tspan></text><text y="50.6" data-line-font-size="11" x="0"><tspan>mean 2.5k tokens · maximum 32k</tspan></text></g></g></g></g><g data-cell-id="4"><g><rect x="280" y="344" width="200" height="100" rx="20" ry="20" fill="#e3f2fd" stroke="#2196f3" stroke-width="1.5" pointer-events="all" style="fill: rgb(227, 242, 253); stroke: rgb(33, 150, 243);"/></g><g><g fill="#212121" font-family="Arial, Helvetica, sans-serif" text-anchor="middle" data-blockTextHeight="66" font-size="11px" style="fill: rgb(33, 33, 33);"><g transform="translate(380,361) scale(1)"><text y="11" data-line-font-size="11" x="0"><tspan>Third-party raters author tasks</tspan></text><text y="24.2" data-line-font-size="11" x="0"><tspan>Q&amp;A · summarization · rewriting</tspan></text><text y="37.4" data-line-font-size="11" x="0"><tspan>non-trivial request from context</tspan></text><text y="50.6" data-line-font-size="11" x="0"><tspan>system instruction</tspan></text><text y="63.8" data-line-font-size="11" x="0"><tspan>forbids external knowledge</tspan></text></g></g></g></g><g data-cell-id="5"><g><rect x="560" y="344" width="200" height="100" rx="20" ry="20" fill="#e3f2fd" stroke="#2196f3" stroke-width="1.5" pointer-events="all" style="fill: rgb(227, 242, 253); stroke: rgb(33, 150, 243);"/></g><g><g fill="#212121" font-family="Arial, Helvetica, sans-serif" text-anchor="middle" data-blockTextHeight="52.8" font-size="11px" style="fill: rgb(33, 33, 33);"><g transform="translate(660,367.6) scale(1)"><text y="11" data-line-font-size="11" x="0"><tspan>Manually verify every example</tspan></text><text y="24.2" data-line-font-size="11" x="0"><tspan>remove creative / expert tasks</tspan></text><text y="37.4" data-line-font-size="11" x="0"><tspan>remove math / logic / meta-analysis</tspan></text><text y="50.6" data-line-font-size="11" x="0"><tspan>remove OCR-unreadable PDF contexts</tspan></text></g></g></g></g><g data-cell-id="6"><g><path d="M 840 359 C 840 350.72 884.77 344 940 344 C 966.52 344 991.96 345.58 1010.71 348.39 C 1029.46 351.21 1040 355.02 1040 359 L 1040 429 C 1040 437.28 995.23 444 940 444 C 884.77 444 840 437.28 840 429 Z" fill="#e8f5e9" stroke="#4caf50" stroke-width="1.5" stroke-miterlimit="10" pointer-events="all" style="fill: rgb(232, 245, 233); stroke: rgb(76, 175, 80);"/><path d="M 1040 359 C 1040 367.28 995.23 374 940 374 C 884.77 374 840 367.28 840 359" fill="none" stroke="#4caf50" stroke-width="1.5" stroke-miterlimit="10" pointer-events="all" style="stroke: rgb(76, 175, 80);"/></g><g><g fill="#212121" font-family="Arial, Helvetica, sans-serif" text-anchor="middle" data-blockTextHeight="52.8" font-size="11px" style="fill: rgb(33, 33, 33);"><g transform="translate(940,380.1) scale(1)"><text y="11" data-line-font-size="11" x="0"><tspan>Balanced random sampling</tspan></text><text y="24.2" data-line-font-size="11" x="0"><tspan>Open public split: 860</tspan></text><text y="37.4" data-line-font-size="11" x="0"><tspan>Blind private split: 859</tspan></text><text y="50.6" data-line-font-size="11" x="0"><tspan>total: 1,719 examples</tspan></text></g></g></g></g><g data-cell-id="7"><g><rect x="1120" y="344" width="200" height="100" rx="20" ry="20" fill="#e3f2fd" stroke="#2196f3" stroke-width="1.5" pointer-events="all" style="fill: rgb(227, 242, 253); stroke: rgb(33, 150, 243);"/></g><g><g fill="#212121" font-family="Arial, Helvetica, sans-serif" text-anchor="middle" data-blockTextHeight="66" font-size="11px" style="fill: rgb(33, 33, 33);"><g transform="translate(1220,361) scale(1)"><text y="11" data-line-font-size="11" x="0"><tspan>Generate the model response</tspan></text><text y="24.2" data-line-font-size="11" x="0"><tspan>system instruction + user request</tspan></text><text y="37.4" data-line-font-size="11" x="0"><tspan>+ supplied context</tspan></text><text y="50.6" data-line-font-size="11" x="0"><tspan>fulfill the request in long form</tspan></text><text y="63.8" data-line-font-size="11" x="0"><tspan>ground exclusively in supplied context</tspan></text></g></g></g></g><g data-cell-id="8"><g><path d="M 1416 24 L 1616 24 L 1616 109 Q 1566 82 1516 109 Q 1466 136 1416 109 L 1416 39 Z" fill="#ffffff" stroke="#9e9e9e" stroke-width="1.5" stroke-miterlimit="10" pointer-events="all" style="fill: rgb(255, 255, 255); stroke: rgb(158, 158, 158);"/></g><g><g fill="#212121" font-family="Arial, Helvetica, sans-serif" text-anchor="middle" data-blockTextHeight="52.8" font-size="11px" style="fill: rgb(33, 33, 33);"><g transform="translate(1516,32.6) scale(1)"><text y="11" data-line-font-size="11" x="0"><tspan>Calibrate eligibility prompts</tspan></text><text y="24.2" data-line-font-size="11" x="0"><tspan>separate golden set N=450</tspan></text><text y="37.4" data-line-font-size="11" x="0"><tspan>request only vs request + context</tspan></text><text y="50.6" data-line-font-size="11" x="0"><tspan>best Macro-F1 template per judge</tspan></text></g></g></g></g><g data-cell-id="9"><g><rect x="1720" y="104" width="200" height="100" rx="20" ry="20" fill="#e3f2fd" stroke="#2196f3" stroke-width="1.5" pointer-events="all" style="fill: rgb(227, 242, 253); stroke: rgb(33, 150, 243);"/></g><g><g fill="#212121" font-family="Arial, Helvetica, sans-serif" text-anchor="middle" data-blockTextHeight="66" font-size="11px" style="fill: rgb(33, 33, 33);"><g transform="translate(1820,121) scale(1)"><text y="11" data-line-font-size="11" x="0"><tspan>Three-judge eligibility verdict</tspan></text><text y="24.2" data-line-font-size="11" x="0"><tspan>Gemini 1.5 Pro · GPT-4o</tspan></text><text y="37.4" data-line-font-size="11" x="0"><tspan>Claude 3.5 Sonnet</tspan></text><text y="50.6" data-line-font-size="11" x="0"><tspan>sufficient response to user request</tspan></text><text y="63.8" data-line-font-size="11" x="0"><tspan>ineligible only if all three agree</tspan></text></g></g></g></g><g data-cell-id="10"><g><path d="M 1416 664 L 1616 664 L 1616 749 Q 1566 722 1516 749 Q 1466 776 1416 749 L 1416 679 Z" fill="#ffffff" stroke="#9e9e9e" stroke-width="1.5" stroke-miterlimit="10" pointer-events="all" style="fill: rgb(255, 255, 255); stroke: rgb(158, 158, 158);"/></g><g><g fill="#212121" font-family="Arial, Helvetica, sans-serif" text-anchor="middle" data-blockTextHeight="66" font-size="11px" style="fill: rgb(33, 33, 33);"><g transform="translate(1516,666) scale(1)"><text y="11" data-line-font-size="11" x="0"><tspan>Calibrate factuality prompts</tspan></text><text y="24.2" data-line-font-size="11" x="0"><tspan>separate N=402 golden set</tspan></text><text y="37.4" data-line-font-size="11" x="0"><tspan>class ratio 87:13</tspan></text><text y="50.6" data-line-font-size="11" x="0"><tspan>test seven prompt templates</tspan></text><text y="63.8" data-line-font-size="11" x="0"><tspan>best Macro-F1 template per judge</tspan></text></g></g></g></g><g data-cell-id="11"><g><rect x="1720" y="584" width="200" height="100" rx="20" ry="20" fill="#e3f2fd" stroke="#2196f3" stroke-width="1.5" pointer-events="all" style="fill: rgb(227, 242, 253); stroke: rgb(33, 150, 243);"/></g><g><g fill="#212121" font-family="Arial, Helvetica, sans-serif" text-anchor="middle" data-blockTextHeight="66" font-size="11px" style="fill: rgb(33, 33, 33);"><g transform="translate(1820,601) scale(1)"><text y="11" data-line-font-size="11" x="0"><tspan>Three-judge factuality verdict</tspan></text><text y="24.2" data-line-font-size="11" x="0"><tspan>accurate only if every</tspan></text><text y="37.4" data-line-font-size="11" x="0"><tspan>informative claim is grounded</tspan></text><text y="50.6" data-line-font-size="11" x="0"><tspan>or requires no grounding</tspan></text><text y="63.8" data-line-font-size="11" x="0"><tspan>one unsupported claim means inaccurate</tspan></text></g></g></g></g><g data-cell-id="12"><g><rect x="2040" y="344" width="200" height="100" rx="20" ry="20" fill="#e3f2fd" stroke="#2196f3" stroke-width="1.5" pointer-events="all" style="fill: rgb(227, 242, 253); stroke: rgb(33, 150, 243);"/></g><g><g fill="#212121" font-family="Arial, Helvetica, sans-serif" text-anchor="middle" data-blockTextHeight="52.8" font-size="11px" style="fill: rgb(33, 33, 33);"><g transform="translate(2140,367.6) scale(1)"><text y="11" data-line-font-size="11" x="0"><tspan>Combine the two stages</tspan></text><text y="24.2" data-line-font-size="11" x="0"><tspan>disqualify ineligible responses</tspan></text><text y="37.4" data-line-font-size="11" x="0"><tspan>count ineligible replies as inaccurate</tspan></text><text y="50.6" data-line-font-size="11" x="0"><tspan>accurate % for each factuality judge</tspan></text></g></g></g></g><g data-cell-id="13"><g><rect x="2336" y="344" width="200" height="100" rx="50" ry="50" fill="#eceff1" stroke="#607d8b" stroke-width="1.5" pointer-events="all" style="fill: rgb(236, 239, 241); stroke: rgb(96, 125, 139);"/></g><g><g fill="#212121" font-family="Arial, Helvetica, sans-serif" text-anchor="middle" data-blockTextHeight="79.2" font-size="11px" style="fill: rgb(33, 33, 33);"><g transform="translate(2436,354.4) scale(1)"><text y="11" data-line-font-size="11" x="0"><tspan>FACTS Grounding factuality score</tspan></text><text y="24.2" data-line-font-size="11" x="0"><tspan>average accurate-response %</tspan></text><text y="37.4" data-line-font-size="11" x="0"><tspan>from the three judges</tspan></text><text y="50.6" data-line-font-size="11" x="0"><tspan>report Open and Blind leaderboards</tspan></text><text y="63.8" data-line-font-size="11" x="0"><tspan>multiple providers</tspan></text><text y="77" data-line-font-size="11" x="0"><tspan>mitigate self-preference</tspan></text></g></g></g></g><g data-cell-id="14"><g><path d="M 50 100 L 50 334.82" fill="none" stroke="#424242" stroke-width="1.5" stroke-miterlimit="10" stroke-dasharray="9 6" pointer-events="stroke" style="stroke: rgb(66, 66, 66);"/><path d="M 50 342.32 L 46.25 334.82 L 53.75 334.82 Z" fill="#424242" stroke="#424242" stroke-width="1.5" stroke-miterlimit="10" pointer-events="all" style="fill: rgb(66, 66, 66); stroke: rgb(66, 66, 66);"/></g></g><g data-cell-id="15"><g><path d="M 200 369 L 270.82 369" fill="none" stroke="#424242" stroke-width="1.5" stroke-miterlimit="10" pointer-events="stroke" style="stroke: rgb(66, 66, 66);"/><path d="M 278.32 369 L 270.82 372.75 L 270.82 365.25 Z" fill="#424242" stroke="#424242" stroke-width="1.5" stroke-miterlimit="10" pointer-events="all" style="fill: rgb(66, 66, 66); stroke: rgb(66, 66, 66);"/></g></g><g data-cell-id="16"><g><path d="M 480 369 L 550.82 369" fill="none" stroke="#424242" stroke-width="1.5" stroke-miterlimit="10" pointer-events="stroke" style="stroke: rgb(66, 66, 66);"/><path d="M 558.32 369 L 550.82 372.75 L 550.82 365.25 Z" fill="#424242" stroke="#424242" stroke-width="1.5" stroke-miterlimit="10" pointer-events="all" style="fill: rgb(66, 66, 66); stroke: rgb(66, 66, 66);"/></g></g><g data-cell-id="17"><g><path d="M 760 369 L 830.82 369" fill="none" stroke="#424242" stroke-width="1.5" stroke-miterlimit="10" pointer-events="stroke" style="stroke: rgb(66, 66, 66);"/><path d="M 838.32 369 L 830.82 372.75 L 830.82 365.25 Z" fill="#424242" stroke="#424242" stroke-width="1.5" stroke-miterlimit="10" pointer-events="all" style="fill: rgb(66, 66, 66); stroke: rgb(66, 66, 66);"/></g></g><g data-cell-id="18"><g><path d="M 1040 369 L 1110.82 369" fill="none" stroke="#424242" stroke-width="1.5" stroke-miterlimit="10" pointer-events="stroke" style="stroke: rgb(66, 66, 66);"/><path d="M 1118.32 369 L 1110.82 372.75 L 1110.82 365.25 Z" fill="#424242" stroke="#424242" stroke-width="1.5" stroke-miterlimit="10" pointer-events="all" style="fill: rgb(66, 66, 66); stroke: rgb(66, 66, 66);"/></g></g><g data-cell-id="19"><g><path d="M 1320 369 L 1520 369 L 1520 169 L 1710.82 169" fill="none" stroke="#424242" stroke-width="1.5" stroke-miterlimit="10" pointer-events="stroke" style="stroke: rgb(66, 66, 66);"/><path d="M 1718.32 169 L 1710.82 172.75 L 1710.82 165.25 Z" fill="#424242" stroke="#424242" stroke-width="1.5" stroke-miterlimit="10" pointer-events="all" style="fill: rgb(66, 66, 66); stroke: rgb(66, 66, 66);"/></g></g><g data-cell-id="20"><g><path d="M 1616 74 L 1820 74 L 1820 94.82" fill="none" stroke="#424242" stroke-width="1.5" stroke-miterlimit="10" stroke-dasharray="9 6" pointer-events="stroke" style="stroke: rgb(66, 66, 66);"/><path d="M 1820 102.32 L 1816.25 94.82 L 1823.75 94.82 Z" fill="#424242" stroke="#424242" stroke-width="1.5" stroke-miterlimit="10" pointer-events="all" style="fill: rgb(66, 66, 66); stroke: rgb(66, 66, 66);"/></g></g><g data-cell-id="21"><g><path d="M 1320 419 L 1520 419 L 1520 619 L 1710.82 619" fill="none" stroke="#424242" stroke-width="1.5" stroke-miterlimit="10" pointer-events="stroke" style="stroke: rgb(66, 66, 66);"/><path d="M 1718.32 619 L 1710.82 622.75 L 1710.82 615.25 Z" fill="#424242" stroke="#424242" stroke-width="1.5" stroke-miterlimit="10" pointer-events="all" style="fill: rgb(66, 66, 66); stroke: rgb(66, 66, 66);"/></g></g><g data-cell-id="22"><g><path d="M 1616 714 L 1820 714 L 1820 693.18" fill="none" stroke="#424242" stroke-width="1.5" stroke-miterlimit="10" stroke-dasharray="9 6" pointer-events="stroke" style="stroke: rgb(66, 66, 66);"/><path d="M 1820 685.68 L 1823.75 693.18 L 1816.25 693.18 Z" fill="#424242" stroke="#424242" stroke-width="1.5" stroke-miterlimit="10" pointer-events="all" style="fill: rgb(66, 66, 66); stroke: rgb(66, 66, 66);"/></g></g><g data-cell-id="23"><g><path d="M 1920 202 L 2096 202 L 2096 334.82" fill="none" stroke="#424242" stroke-width="1.5" stroke-miterlimit="10" pointer-events="stroke" style="stroke: rgb(66, 66, 66);"/><path d="M 2096 342.32 L 2092.25 334.82 L 2099.75 334.82 Z" fill="#424242" stroke="#424242" stroke-width="1.5" stroke-miterlimit="10" pointer-events="all" style="fill: rgb(66, 66, 66); stroke: rgb(66, 66, 66);"/></g></g><g data-cell-id="24"><g><path d="M 1920 682 L 2116 682 L 2116 453.18" fill="none" stroke="#424242" stroke-width="1.5" stroke-miterlimit="10" pointer-events="stroke" style="stroke: rgb(66, 66, 66);"/><path d="M 2116 445.68 L 2119.75 453.18 L 2112.25 453.18 Z" fill="#424242" stroke="#424242" stroke-width="1.5" stroke-miterlimit="10" pointer-events="all" style="fill: rgb(66, 66, 66); stroke: rgb(66, 66, 66);"/></g></g><g data-cell-id="25"><g><path d="M 2240 369 L 2326.82 369" fill="none" stroke="#424242" stroke-width="1.5" stroke-miterlimit="10" pointer-events="stroke" style="stroke: rgb(66, 66, 66);"/><path d="M 2334.32 369 L 2326.82 372.75 L 2326.82 365.25 Z" fill="#424242" stroke="#424242" stroke-width="1.5" stroke-miterlimit="10" pointer-events="all" style="fill: rgb(66, 66, 66); stroke: rgb(66, 66, 66);"/></g></g></g></g></g></svg>